<mxfile host="Electron" agent="Mozilla/5.0 (Windows NT 10.0; Win64; x64) AppleWebKit/537.36 (KHTML, like Gecko) draw.io/24.7.8 Chrome/128.0.6613.36 Electron/32.0.1 Safari/537.36" version="24.7.8">
  <diagram name="1 oldal" id="hTo9IaE-RN6WlClxC0R_">
    <mxGraphModel dx="2206" dy="2386" grid="1" gridSize="10" guides="1" tooltips="1" connect="1" arrows="1" fold="1" page="1" pageScale="1" pageWidth="850" pageHeight="1100" math="0" shadow="0">
      <root>
        <mxCell id="0" />
        <mxCell id="1" parent="0" />
        <mxCell id="fIHqaEuYIzl1sbzKEDiN-1" value="Látogató" style="shape=umlActor;verticalLabelPosition=bottom;verticalAlign=top;html=1;outlineConnect=0;" parent="1" vertex="1">
          <mxGeometry x="140" y="50" width="30" height="60" as="geometry" />
        </mxCell>
        <mxCell id="fIHqaEuYIzl1sbzKEDiN-3" value="Regisztráció" style="ellipse;whiteSpace=wrap;html=1;strokeColor=default;" parent="1" vertex="1">
          <mxGeometry x="360" y="300" width="120" height="80" as="geometry" />
        </mxCell>
        <mxCell id="fIHqaEuYIzl1sbzKEDiN-4" value="Bejelentkezés" style="ellipse;whiteSpace=wrap;html=1;" parent="1" vertex="1">
          <mxGeometry x="360" y="210" width="120" height="80" as="geometry" />
        </mxCell>
        <mxCell id="fIHqaEuYIzl1sbzKEDiN-5" value="Kosár kezelése" style="ellipse;whiteSpace=wrap;html=1;" parent="1" vertex="1">
          <mxGeometry x="680" y="-210" width="120" height="80" as="geometry" />
        </mxCell>
        <mxCell id="fIHqaEuYIzl1sbzKEDiN-7" value="Termék hozáadása" style="ellipse;whiteSpace=wrap;html=1;" parent="1" vertex="1">
          <mxGeometry x="540" y="-310" width="120" height="80" as="geometry" />
        </mxCell>
        <mxCell id="fIHqaEuYIzl1sbzKEDiN-8" value="Termék törlése" style="ellipse;whiteSpace=wrap;html=1;" parent="1" vertex="1">
          <mxGeometry x="540" y="-110" width="120" height="80" as="geometry" />
        </mxCell>
        <mxCell id="fIHqaEuYIzl1sbzKEDiN-9" value="Termék módosítása" style="ellipse;whiteSpace=wrap;html=1;" parent="1" vertex="1">
          <mxGeometry x="540" y="-210" width="120" height="80" as="geometry" />
        </mxCell>
        <mxCell id="fIHqaEuYIzl1sbzKEDiN-10" value="" style="endArrow=none;dashed=1;html=1;rounded=0;startArrow=block;startFill=0;" parent="1" source="fIHqaEuYIzl1sbzKEDiN-5" target="fIHqaEuYIzl1sbzKEDiN-9" edge="1">
          <mxGeometry width="50" height="50" relative="1" as="geometry">
            <mxPoint x="400" y="350" as="sourcePoint" />
            <mxPoint x="450" y="300" as="targetPoint" />
          </mxGeometry>
        </mxCell>
        <mxCell id="fIHqaEuYIzl1sbzKEDiN-11" value="" style="endArrow=none;dashed=1;html=1;rounded=0;startArrow=block;startFill=0;strokeWidth=1;" parent="1" source="fIHqaEuYIzl1sbzKEDiN-5" target="fIHqaEuYIzl1sbzKEDiN-8" edge="1">
          <mxGeometry width="50" height="50" relative="1" as="geometry">
            <mxPoint x="490" y="334" as="sourcePoint" />
            <mxPoint x="510" y="336" as="targetPoint" />
          </mxGeometry>
        </mxCell>
        <mxCell id="fIHqaEuYIzl1sbzKEDiN-12" value="" style="endArrow=none;dashed=1;html=1;rounded=0;startArrow=block;startFill=0;" parent="1" source="fIHqaEuYIzl1sbzKEDiN-5" target="fIHqaEuYIzl1sbzKEDiN-7" edge="1">
          <mxGeometry width="50" height="50" relative="1" as="geometry">
            <mxPoint x="474" y="358" as="sourcePoint" />
            <mxPoint x="576" y="422" as="targetPoint" />
          </mxGeometry>
        </mxCell>
        <mxCell id="fIHqaEuYIzl1sbzKEDiN-13" value="Adatbázis" style="shape=umlActor;verticalLabelPosition=bottom;verticalAlign=top;html=1;outlineConnect=0;strokeColor=default;" parent="1" vertex="1">
          <mxGeometry x="940" y="340" width="30" height="60" as="geometry" />
        </mxCell>
        <mxCell id="fIHqaEuYIzl1sbzKEDiN-19" value="" style="endArrow=open;dashed=1;html=1;rounded=0;startArrow=none;startFill=0;endFill=0;" parent="1" source="fIHqaEuYIzl1sbzKEDiN-3" target="fIHqaEuYIzl1sbzKEDiN-28" edge="1">
          <mxGeometry width="50" height="50" relative="1" as="geometry">
            <mxPoint x="420" y="90" as="sourcePoint" />
            <mxPoint x="740" y="230" as="targetPoint" />
          </mxGeometry>
        </mxCell>
        <mxCell id="fIHqaEuYIzl1sbzKEDiN-23" value="&amp;lt;&amp;lt;include&amp;gt;&amp;gt;" style="edgeLabel;html=1;align=center;verticalAlign=middle;resizable=0;points=[];" parent="fIHqaEuYIzl1sbzKEDiN-19" vertex="1" connectable="0">
          <mxGeometry x="0.0731" y="2" relative="1" as="geometry">
            <mxPoint as="offset" />
          </mxGeometry>
        </mxCell>
        <mxCell id="fIHqaEuYIzl1sbzKEDiN-28" value="Adatkezelés" style="ellipse;whiteSpace=wrap;html=1;" parent="1" vertex="1">
          <mxGeometry x="750" y="220" width="120" height="80" as="geometry" />
        </mxCell>
        <mxCell id="fIHqaEuYIzl1sbzKEDiN-29" value="" style="endArrow=none;html=1;rounded=0;entryX=0.5;entryY=0.5;entryDx=0;entryDy=0;entryPerimeter=0;" parent="1" source="fIHqaEuYIzl1sbzKEDiN-28" target="fIHqaEuYIzl1sbzKEDiN-13" edge="1">
          <mxGeometry width="50" height="50" relative="1" as="geometry">
            <mxPoint x="620" y="290" as="sourcePoint" />
            <mxPoint x="670" y="240" as="targetPoint" />
          </mxGeometry>
        </mxCell>
        <mxCell id="fIHqaEuYIzl1sbzKEDiN-30" value="" style="endArrow=open;dashed=1;html=1;rounded=0;startArrow=none;startFill=0;endFill=0;" parent="1" source="fIHqaEuYIzl1sbzKEDiN-4" target="fIHqaEuYIzl1sbzKEDiN-28" edge="1">
          <mxGeometry width="50" height="50" relative="1" as="geometry">
            <mxPoint x="477" y="85" as="sourcePoint" />
            <mxPoint x="773" y="245" as="targetPoint" />
          </mxGeometry>
        </mxCell>
        <mxCell id="fIHqaEuYIzl1sbzKEDiN-31" value="&amp;lt;&amp;lt;include&amp;gt;&amp;gt;" style="edgeLabel;html=1;align=center;verticalAlign=middle;resizable=0;points=[];" parent="fIHqaEuYIzl1sbzKEDiN-30" vertex="1" connectable="0">
          <mxGeometry x="0.0731" y="2" relative="1" as="geometry">
            <mxPoint as="offset" />
          </mxGeometry>
        </mxCell>
        <mxCell id="fIHqaEuYIzl1sbzKEDiN-34" value="" style="endArrow=open;dashed=1;html=1;rounded=0;startArrow=none;startFill=0;endFill=0;" parent="1" source="fIHqaEuYIzl1sbzKEDiN-5" target="fIHqaEuYIzl1sbzKEDiN-28" edge="1">
          <mxGeometry width="50" height="50" relative="1" as="geometry">
            <mxPoint x="490" y="245" as="sourcePoint" />
            <mxPoint x="760" y="265" as="targetPoint" />
          </mxGeometry>
        </mxCell>
        <mxCell id="fIHqaEuYIzl1sbzKEDiN-35" value="&amp;lt;&amp;lt;include&amp;gt;&amp;gt;" style="edgeLabel;html=1;align=center;verticalAlign=middle;resizable=0;points=[];" parent="fIHqaEuYIzl1sbzKEDiN-34" vertex="1" connectable="0">
          <mxGeometry x="0.0731" y="2" relative="1" as="geometry">
            <mxPoint as="offset" />
          </mxGeometry>
        </mxCell>
        <mxCell id="fIHqaEuYIzl1sbzKEDiN-38" value="" style="endArrow=none;html=1;rounded=0;exitX=0.5;exitY=0.5;exitDx=0;exitDy=0;exitPerimeter=0;" parent="1" source="fIHqaEuYIzl1sbzKEDiN-1" target="fIHqaEuYIzl1sbzKEDiN-3" edge="1">
          <mxGeometry width="50" height="50" relative="1" as="geometry">
            <mxPoint x="430" y="290" as="sourcePoint" />
            <mxPoint x="480" y="240" as="targetPoint" />
          </mxGeometry>
        </mxCell>
        <mxCell id="fIHqaEuYIzl1sbzKEDiN-39" value="" style="endArrow=none;html=1;rounded=0;exitX=0.5;exitY=0.5;exitDx=0;exitDy=0;exitPerimeter=0;" parent="1" source="fIHqaEuYIzl1sbzKEDiN-1" target="fIHqaEuYIzl1sbzKEDiN-4" edge="1">
          <mxGeometry width="50" height="50" relative="1" as="geometry">
            <mxPoint x="50" y="140" as="sourcePoint" />
            <mxPoint x="373" y="72" as="targetPoint" />
          </mxGeometry>
        </mxCell>
        <mxCell id="fIHqaEuYIzl1sbzKEDiN-41" value="" style="endArrow=none;html=1;rounded=0;exitX=0.5;exitY=0.5;exitDx=0;exitDy=0;exitPerimeter=0;" parent="1" source="zGulU9kN_2OV6dmLiLi6-11" target="fIHqaEuYIzl1sbzKEDiN-5" edge="1">
          <mxGeometry width="50" height="50" relative="1" as="geometry">
            <mxPoint x="55" y="140" as="sourcePoint" />
            <mxPoint x="374" y="225" as="targetPoint" />
          </mxGeometry>
        </mxCell>
        <mxCell id="fIHqaEuYIzl1sbzKEDiN-43" value="Rendelés" style="ellipse;whiteSpace=wrap;html=1;" parent="1" vertex="1">
          <mxGeometry x="1370" y="-170" width="120" height="80" as="geometry" />
        </mxCell>
        <mxCell id="fIHqaEuYIzl1sbzKEDiN-45" value="Fiók kezelése" style="ellipse;whiteSpace=wrap;html=1;" parent="1" vertex="1">
          <mxGeometry x="1225" y="-170" width="120" height="80" as="geometry" />
        </mxCell>
        <mxCell id="fIHqaEuYIzl1sbzKEDiN-49" value="Lakcím módosítása" style="ellipse;whiteSpace=wrap;html=1;" parent="1" vertex="1">
          <mxGeometry x="1120" y="-340" width="120" height="80" as="geometry" />
        </mxCell>
        <mxCell id="fIHqaEuYIzl1sbzKEDiN-52" value="" style="endArrow=none;dashed=1;html=1;rounded=0;startArrow=block;startFill=0;strokeWidth=1;" parent="1" source="fIHqaEuYIzl1sbzKEDiN-45" target="fIHqaEuYIzl1sbzKEDiN-49" edge="1">
          <mxGeometry width="50" height="50" relative="1" as="geometry">
            <mxPoint x="1346" y="-141" as="sourcePoint" />
            <mxPoint x="1414" y="-169" as="targetPoint" />
          </mxGeometry>
        </mxCell>
        <mxCell id="fIHqaEuYIzl1sbzKEDiN-55" value="" style="endArrow=open;dashed=1;html=1;rounded=0;startArrow=none;startFill=0;endFill=0;" parent="1" source="fIHqaEuYIzl1sbzKEDiN-43" target="fIHqaEuYIzl1sbzKEDiN-28" edge="1">
          <mxGeometry width="50" height="50" relative="1" as="geometry">
            <mxPoint x="488" y="321" as="sourcePoint" />
            <mxPoint x="762" y="279" as="targetPoint" />
          </mxGeometry>
        </mxCell>
        <mxCell id="fIHqaEuYIzl1sbzKEDiN-56" value="&amp;lt;&amp;lt;include&amp;gt;&amp;gt;" style="edgeLabel;html=1;align=center;verticalAlign=middle;resizable=0;points=[];" parent="fIHqaEuYIzl1sbzKEDiN-55" vertex="1" connectable="0">
          <mxGeometry x="0.0731" y="2" relative="1" as="geometry">
            <mxPoint as="offset" />
          </mxGeometry>
        </mxCell>
        <mxCell id="fIHqaEuYIzl1sbzKEDiN-57" value="" style="endArrow=open;dashed=1;html=1;rounded=0;startArrow=none;startFill=0;endFill=0;" parent="1" source="fIHqaEuYIzl1sbzKEDiN-45" target="fIHqaEuYIzl1sbzKEDiN-28" edge="1">
          <mxGeometry width="50" height="50" relative="1" as="geometry">
            <mxPoint x="751" y="740" as="sourcePoint" />
            <mxPoint x="814" y="310" as="targetPoint" />
          </mxGeometry>
        </mxCell>
        <mxCell id="fIHqaEuYIzl1sbzKEDiN-58" value="&amp;lt;&amp;lt;include&amp;gt;&amp;gt;" style="edgeLabel;html=1;align=center;verticalAlign=middle;resizable=0;points=[];" parent="fIHqaEuYIzl1sbzKEDiN-57" vertex="1" connectable="0">
          <mxGeometry x="0.0731" y="2" relative="1" as="geometry">
            <mxPoint as="offset" />
          </mxGeometry>
        </mxCell>
        <mxCell id="fIHqaEuYIzl1sbzKEDiN-61" value="Étterem tulajdonos" style="shape=umlActor;verticalLabelPosition=bottom;verticalAlign=top;html=1;outlineConnect=0;" parent="1" vertex="1">
          <mxGeometry x="906.19" y="800" width="30" height="60" as="geometry" />
        </mxCell>
        <mxCell id="fIHqaEuYIzl1sbzKEDiN-62" value="Étterem kezelése" style="ellipse;whiteSpace=wrap;html=1;" parent="1" vertex="1">
          <mxGeometry x="861.19" y="630" width="120" height="80" as="geometry" />
        </mxCell>
        <mxCell id="fIHqaEuYIzl1sbzKEDiN-64" value="" style="endArrow=none;html=1;rounded=0;exitX=0.5;exitY=0.5;exitDx=0;exitDy=0;exitPerimeter=0;" parent="1" source="fIHqaEuYIzl1sbzKEDiN-61" target="fIHqaEuYIzl1sbzKEDiN-62" edge="1">
          <mxGeometry width="50" height="50" relative="1" as="geometry">
            <mxPoint x="371.19" y="880" as="sourcePoint" />
            <mxPoint x="423.19" y="797" as="targetPoint" />
          </mxGeometry>
        </mxCell>
        <mxCell id="fIHqaEuYIzl1sbzKEDiN-65" value="Új termék hozzáadása" style="ellipse;whiteSpace=wrap;html=1;" parent="1" vertex="1">
          <mxGeometry x="1090" y="560" width="120" height="80" as="geometry" />
        </mxCell>
        <mxCell id="fIHqaEuYIzl1sbzKEDiN-66" value="Termék törlése" style="ellipse;whiteSpace=wrap;html=1;" parent="1" vertex="1">
          <mxGeometry x="1090" y="650" width="120" height="80" as="geometry" />
        </mxCell>
        <mxCell id="fIHqaEuYIzl1sbzKEDiN-67" value="Termék módosítása" style="ellipse;whiteSpace=wrap;html=1;" parent="1" vertex="1">
          <mxGeometry x="1090" y="740" width="120" height="80" as="geometry" />
        </mxCell>
        <mxCell id="fIHqaEuYIzl1sbzKEDiN-68" value="" style="endArrow=none;dashed=1;html=1;rounded=0;startArrow=block;startFill=0;strokeWidth=1;" parent="1" source="fIHqaEuYIzl1sbzKEDiN-62" target="fIHqaEuYIzl1sbzKEDiN-65" edge="1">
          <mxGeometry width="50" height="50" relative="1" as="geometry">
            <mxPoint x="497.19" y="739" as="sourcePoint" />
            <mxPoint x="565.19" y="711" as="targetPoint" />
          </mxGeometry>
        </mxCell>
        <mxCell id="fIHqaEuYIzl1sbzKEDiN-69" value="" style="endArrow=none;dashed=1;html=1;rounded=0;startArrow=block;startFill=0;strokeWidth=1;" parent="1" source="fIHqaEuYIzl1sbzKEDiN-62" target="fIHqaEuYIzl1sbzKEDiN-66" edge="1">
          <mxGeometry width="50" height="50" relative="1" as="geometry">
            <mxPoint x="973.19" y="651" as="sourcePoint" />
            <mxPoint x="1079.19" y="579" as="targetPoint" />
          </mxGeometry>
        </mxCell>
        <mxCell id="fIHqaEuYIzl1sbzKEDiN-70" value="" style="endArrow=none;dashed=1;html=1;rounded=0;startArrow=block;startFill=0;strokeWidth=1;" parent="1" source="fIHqaEuYIzl1sbzKEDiN-62" target="fIHqaEuYIzl1sbzKEDiN-67" edge="1">
          <mxGeometry width="50" height="50" relative="1" as="geometry">
            <mxPoint x="988.19" y="668" as="sourcePoint" />
            <mxPoint x="1104.19" y="642" as="targetPoint" />
          </mxGeometry>
        </mxCell>
        <mxCell id="fIHqaEuYIzl1sbzKEDiN-71" value="" style="endArrow=open;dashed=1;html=1;rounded=0;startArrow=none;startFill=0;endFill=0;" parent="1" source="fIHqaEuYIzl1sbzKEDiN-62" target="fIHqaEuYIzl1sbzKEDiN-28" edge="1">
          <mxGeometry width="50" height="50" relative="1" as="geometry">
            <mxPoint x="668" y="731" as="sourcePoint" />
            <mxPoint x="807" y="309" as="targetPoint" />
          </mxGeometry>
        </mxCell>
        <mxCell id="fIHqaEuYIzl1sbzKEDiN-72" value="&amp;lt;&amp;lt;include&amp;gt;&amp;gt;" style="edgeLabel;html=1;align=center;verticalAlign=middle;resizable=0;points=[];" parent="fIHqaEuYIzl1sbzKEDiN-71" vertex="1" connectable="0">
          <mxGeometry x="0.0731" y="2" relative="1" as="geometry">
            <mxPoint as="offset" />
          </mxGeometry>
        </mxCell>
        <mxCell id="fIHqaEuYIzl1sbzKEDiN-73" value="Admin felhasználó" style="shape=umlActor;verticalLabelPosition=bottom;verticalAlign=top;html=1;outlineConnect=0;" parent="1" vertex="1">
          <mxGeometry x="1450" y="160" width="30" height="60" as="geometry" />
        </mxCell>
        <mxCell id="fIHqaEuYIzl1sbzKEDiN-74" value="Felhasználók kezelése" style="ellipse;whiteSpace=wrap;html=1;" parent="1" vertex="1">
          <mxGeometry x="1250" y="100" width="120" height="80" as="geometry" />
        </mxCell>
        <mxCell id="fIHqaEuYIzl1sbzKEDiN-75" value="" style="endArrow=none;html=1;rounded=0;exitX=0.5;exitY=0.5;exitDx=0;exitDy=0;exitPerimeter=0;" parent="1" source="fIHqaEuYIzl1sbzKEDiN-73" target="fIHqaEuYIzl1sbzKEDiN-74" edge="1">
          <mxGeometry width="50" height="50" relative="1" as="geometry">
            <mxPoint x="1245" y="780" as="sourcePoint" />
            <mxPoint x="1177" y="722" as="targetPoint" />
          </mxGeometry>
        </mxCell>
        <mxCell id="fIHqaEuYIzl1sbzKEDiN-79" value="Jelszó módosítása" style="ellipse;whiteSpace=wrap;html=1;" parent="1" vertex="1">
          <mxGeometry x="1380" y="-340" width="120" height="80" as="geometry" />
        </mxCell>
        <mxCell id="fIHqaEuYIzl1sbzKEDiN-80" value="" style="endArrow=none;dashed=1;html=1;rounded=0;startArrow=block;startFill=0;strokeWidth=1;" parent="1" source="fIHqaEuYIzl1sbzKEDiN-45" target="fIHqaEuYIzl1sbzKEDiN-79" edge="1">
          <mxGeometry width="50" height="50" relative="1" as="geometry">
            <mxPoint x="1390" y="134" as="sourcePoint" />
            <mxPoint x="1479" y="163" as="targetPoint" />
          </mxGeometry>
        </mxCell>
        <mxCell id="fIHqaEuYIzl1sbzKEDiN-81" value="Felhasználó törlése" style="ellipse;whiteSpace=wrap;html=1;" parent="1" vertex="1">
          <mxGeometry x="1410" y="-10" width="120" height="80" as="geometry" />
        </mxCell>
        <mxCell id="fIHqaEuYIzl1sbzKEDiN-82" value="" style="endArrow=none;dashed=1;html=1;rounded=0;startArrow=block;startFill=0;strokeWidth=1;" parent="1" source="fIHqaEuYIzl1sbzKEDiN-74" target="fIHqaEuYIzl1sbzKEDiN-81" edge="1">
          <mxGeometry width="50" height="50" relative="1" as="geometry">
            <mxPoint x="1182" y="661" as="sourcePoint" />
            <mxPoint x="1288" y="589" as="targetPoint" />
          </mxGeometry>
        </mxCell>
        <mxCell id="fIHqaEuYIzl1sbzKEDiN-84" value="Felhasználó adatainak módosítása" style="ellipse;whiteSpace=wrap;html=1;" parent="1" vertex="1">
          <mxGeometry x="1550" y="-10.000000000000007" width="120" height="80" as="geometry" />
        </mxCell>
        <mxCell id="fIHqaEuYIzl1sbzKEDiN-85" value="" style="endArrow=none;dashed=1;html=1;rounded=0;startArrow=block;startFill=0;strokeWidth=1;" parent="1" source="fIHqaEuYIzl1sbzKEDiN-74" target="fIHqaEuYIzl1sbzKEDiN-84" edge="1">
          <mxGeometry width="50" height="50" relative="1" as="geometry">
            <mxPoint x="1329.9988070798995" y="221.01943760464678" as="sourcePoint" />
            <mxPoint x="1419.13" y="597.99" as="targetPoint" />
          </mxGeometry>
        </mxCell>
        <mxCell id="fIHqaEuYIzl1sbzKEDiN-88" value="" style="endArrow=open;dashed=1;html=1;rounded=0;startArrow=none;startFill=0;endFill=0;" parent="1" source="fIHqaEuYIzl1sbzKEDiN-74" target="fIHqaEuYIzl1sbzKEDiN-28" edge="1">
          <mxGeometry width="50" height="50" relative="1" as="geometry">
            <mxPoint x="1113" y="654" as="sourcePoint" />
            <mxPoint x="847" y="306" as="targetPoint" />
          </mxGeometry>
        </mxCell>
        <mxCell id="fIHqaEuYIzl1sbzKEDiN-89" value="&amp;lt;&amp;lt;include&amp;gt;&amp;gt;" style="edgeLabel;html=1;align=center;verticalAlign=middle;resizable=0;points=[];" parent="fIHqaEuYIzl1sbzKEDiN-88" vertex="1" connectable="0">
          <mxGeometry x="0.0731" y="2" relative="1" as="geometry">
            <mxPoint as="offset" />
          </mxGeometry>
        </mxCell>
        <mxCell id="It3g92XxdYLrqr_UEGC3-1" value="Telefonszám módosítása" style="ellipse;whiteSpace=wrap;html=1;" parent="1" vertex="1">
          <mxGeometry x="1250" y="-340" width="120" height="80" as="geometry" />
        </mxCell>
        <mxCell id="It3g92XxdYLrqr_UEGC3-3" value="" style="endArrow=none;dashed=1;html=1;rounded=0;startArrow=block;startFill=0;strokeWidth=1;" parent="1" source="fIHqaEuYIzl1sbzKEDiN-45" target="It3g92XxdYLrqr_UEGC3-1" edge="1">
          <mxGeometry width="50" height="50" relative="1" as="geometry">
            <mxPoint x="1352" y="-133" as="sourcePoint" />
            <mxPoint x="1453" y="-157" as="targetPoint" />
          </mxGeometry>
        </mxCell>
        <mxCell id="It3g92XxdYLrqr_UEGC3-4" value="Étterem törlése" style="ellipse;whiteSpace=wrap;html=1;" parent="1" vertex="1">
          <mxGeometry x="1090" y="470" width="120" height="80" as="geometry" />
        </mxCell>
        <mxCell id="It3g92XxdYLrqr_UEGC3-5" value="" style="endArrow=none;dashed=1;html=1;rounded=0;startArrow=block;startFill=0;strokeWidth=1;" parent="1" source="fIHqaEuYIzl1sbzKEDiN-62" target="It3g92XxdYLrqr_UEGC3-4" edge="1">
          <mxGeometry width="50" height="50" relative="1" as="geometry">
            <mxPoint x="973.19" y="651" as="sourcePoint" />
            <mxPoint x="1079.19" y="579" as="targetPoint" />
          </mxGeometry>
        </mxCell>
        <mxCell id="It3g92XxdYLrqr_UEGC3-6" value="Étteremek&amp;nbsp;&lt;span style=&quot;background-color: initial;&quot;&gt;kezelése&lt;/span&gt;" style="ellipse;whiteSpace=wrap;html=1;" parent="1" vertex="1">
          <mxGeometry x="1250" y="210" width="120" height="80" as="geometry" />
        </mxCell>
        <mxCell id="It3g92XxdYLrqr_UEGC3-7" value="" style="endArrow=none;html=1;rounded=0;exitX=0.5;exitY=0.5;exitDx=0;exitDy=0;exitPerimeter=0;" parent="1" source="fIHqaEuYIzl1sbzKEDiN-73" target="It3g92XxdYLrqr_UEGC3-6" edge="1">
          <mxGeometry width="50" height="50" relative="1" as="geometry">
            <mxPoint x="1475" y="200" as="sourcePoint" />
            <mxPoint x="1365" y="233" as="targetPoint" />
          </mxGeometry>
        </mxCell>
        <mxCell id="It3g92XxdYLrqr_UEGC3-8" value="Étterem létrehozása" style="ellipse;whiteSpace=wrap;html=1;" parent="1" vertex="1">
          <mxGeometry x="1560" y="250" width="120" height="80" as="geometry" />
        </mxCell>
        <mxCell id="It3g92XxdYLrqr_UEGC3-9" value="" style="endArrow=none;dashed=1;html=1;rounded=0;startArrow=block;startFill=0;strokeWidth=1;" parent="1" source="It3g92XxdYLrqr_UEGC3-6" target="It3g92XxdYLrqr_UEGC3-8" edge="1">
          <mxGeometry width="50" height="50" relative="1" as="geometry">
            <mxPoint x="1440" y="500" as="sourcePoint" />
            <mxPoint x="1288" y="589" as="targetPoint" />
          </mxGeometry>
        </mxCell>
        <mxCell id="It3g92XxdYLrqr_UEGC3-10" value="Éttermek módosítása" style="ellipse;whiteSpace=wrap;html=1;" parent="1" vertex="1">
          <mxGeometry x="1560" y="440" width="120" height="80" as="geometry" />
        </mxCell>
        <mxCell id="It3g92XxdYLrqr_UEGC3-11" value="Éttermek törlése" style="ellipse;whiteSpace=wrap;html=1;" parent="1" vertex="1">
          <mxGeometry x="1560" y="340" width="120" height="80" as="geometry" />
        </mxCell>
        <mxCell id="It3g92XxdYLrqr_UEGC3-12" value="" style="endArrow=none;dashed=1;html=1;rounded=0;startArrow=block;startFill=0;strokeWidth=1;" parent="1" source="It3g92XxdYLrqr_UEGC3-6" target="It3g92XxdYLrqr_UEGC3-11" edge="1">
          <mxGeometry width="50" height="50" relative="1" as="geometry">
            <mxPoint x="1539" y="370" as="sourcePoint" />
            <mxPoint x="1591" y="410" as="targetPoint" />
          </mxGeometry>
        </mxCell>
        <mxCell id="It3g92XxdYLrqr_UEGC3-13" value="" style="endArrow=none;dashed=1;html=1;rounded=0;startArrow=block;startFill=0;strokeWidth=1;" parent="1" source="It3g92XxdYLrqr_UEGC3-6" target="It3g92XxdYLrqr_UEGC3-10" edge="1">
          <mxGeometry width="50" height="50" relative="1" as="geometry">
            <mxPoint x="1503" y="380" as="sourcePoint" />
            <mxPoint x="1507" y="440" as="targetPoint" />
          </mxGeometry>
        </mxCell>
        <mxCell id="FNTsN3jtB9tOvY0wWbge-1" value="Futár felhasználó" style="shape=umlActor;verticalLabelPosition=bottom;verticalAlign=top;html=1;outlineConnect=0;" parent="1" vertex="1">
          <mxGeometry x="460" y="785" width="30" height="60" as="geometry" />
        </mxCell>
        <mxCell id="FNTsN3jtB9tOvY0wWbge-3" value="Rendelés felvétele" style="ellipse;whiteSpace=wrap;html=1;" parent="1" vertex="1">
          <mxGeometry x="550" y="695" width="120" height="80" as="geometry" />
        </mxCell>
        <mxCell id="FNTsN3jtB9tOvY0wWbge-4" value="Rendelések megtekintése" style="ellipse;whiteSpace=wrap;html=1;" parent="1" vertex="1">
          <mxGeometry x="550" y="605" width="120" height="80" as="geometry" />
        </mxCell>
        <mxCell id="FNTsN3jtB9tOvY0wWbge-11" value="Rendelés teljesítése" style="ellipse;whiteSpace=wrap;html=1;" parent="1" vertex="1">
          <mxGeometry x="550" y="515" width="120" height="80" as="geometry" />
        </mxCell>
        <mxCell id="FNTsN3jtB9tOvY0wWbge-13" value="Rendelések kezelése" style="ellipse;whiteSpace=wrap;html=1;" parent="1" vertex="1">
          <mxGeometry x="380" y="605" width="120" height="80" as="geometry" />
        </mxCell>
        <mxCell id="FNTsN3jtB9tOvY0wWbge-14" value="" style="endArrow=none;dashed=1;html=1;rounded=0;startArrow=block;startFill=0;strokeWidth=1;" parent="1" source="FNTsN3jtB9tOvY0wWbge-13" target="FNTsN3jtB9tOvY0wWbge-11" edge="1">
          <mxGeometry width="50" height="50" relative="1" as="geometry">
            <mxPoint x="799" y="517" as="sourcePoint" />
            <mxPoint x="851" y="413" as="targetPoint" />
          </mxGeometry>
        </mxCell>
        <mxCell id="FNTsN3jtB9tOvY0wWbge-15" value="" style="endArrow=none;dashed=1;html=1;rounded=0;startArrow=block;startFill=0;strokeWidth=1;" parent="1" source="FNTsN3jtB9tOvY0wWbge-13" target="FNTsN3jtB9tOvY0wWbge-4" edge="1">
          <mxGeometry width="50" height="50" relative="1" as="geometry">
            <mxPoint x="521" y="616" as="sourcePoint" />
            <mxPoint x="579" y="574" as="targetPoint" />
          </mxGeometry>
        </mxCell>
        <mxCell id="FNTsN3jtB9tOvY0wWbge-16" value="" style="endArrow=none;dashed=1;html=1;rounded=0;startArrow=block;startFill=0;strokeWidth=1;" parent="1" source="FNTsN3jtB9tOvY0wWbge-13" target="FNTsN3jtB9tOvY0wWbge-3" edge="1">
          <mxGeometry width="50" height="50" relative="1" as="geometry">
            <mxPoint x="540" y="648" as="sourcePoint" />
            <mxPoint x="620" y="652" as="targetPoint" />
          </mxGeometry>
        </mxCell>
        <mxCell id="FNTsN3jtB9tOvY0wWbge-17" value="" style="endArrow=none;html=1;rounded=0;exitX=0.5;exitY=0.5;exitDx=0;exitDy=0;exitPerimeter=0;" parent="1" source="FNTsN3jtB9tOvY0wWbge-1" target="FNTsN3jtB9tOvY0wWbge-13" edge="1">
          <mxGeometry width="50" height="50" relative="1" as="geometry">
            <mxPoint x="885" y="645" as="sourcePoint" />
            <mxPoint x="817" y="587" as="targetPoint" />
          </mxGeometry>
        </mxCell>
        <mxCell id="FNTsN3jtB9tOvY0wWbge-18" value="" style="endArrow=open;dashed=1;html=1;rounded=0;startArrow=none;startFill=0;endFill=0;" parent="1" source="FNTsN3jtB9tOvY0wWbge-13" target="fIHqaEuYIzl1sbzKEDiN-28" edge="1">
          <mxGeometry width="50" height="50" relative="1" as="geometry">
            <mxPoint x="1113" y="654" as="sourcePoint" />
            <mxPoint x="847" y="306" as="targetPoint" />
          </mxGeometry>
        </mxCell>
        <mxCell id="FNTsN3jtB9tOvY0wWbge-19" value="&amp;lt;&amp;lt;include&amp;gt;&amp;gt;" style="edgeLabel;html=1;align=center;verticalAlign=middle;resizable=0;points=[];" parent="FNTsN3jtB9tOvY0wWbge-18" vertex="1" connectable="0">
          <mxGeometry x="0.0731" y="2" relative="1" as="geometry">
            <mxPoint as="offset" />
          </mxGeometry>
        </mxCell>
        <mxCell id="zGulU9kN_2OV6dmLiLi6-11" value="Bejelentkezett felhasználó" style="shape=umlActor;verticalLabelPosition=bottom;verticalAlign=top;html=1;outlineConnect=0;" vertex="1" parent="1">
          <mxGeometry x="960" y="-300" width="30" height="60" as="geometry" />
        </mxCell>
        <mxCell id="zGulU9kN_2OV6dmLiLi6-13" value="" style="endArrow=none;html=1;rounded=0;exitX=0.5;exitY=0.5;exitDx=0;exitDy=0;exitPerimeter=0;" edge="1" parent="1" source="zGulU9kN_2OV6dmLiLi6-11" target="zGulU9kN_2OV6dmLiLi6-26">
          <mxGeometry width="50" height="50" relative="1" as="geometry">
            <mxPoint x="985" y="-260" as="sourcePoint" />
            <mxPoint x="901.5407416676067" y="-166.25428647087801" as="targetPoint" />
          </mxGeometry>
        </mxCell>
        <mxCell id="zGulU9kN_2OV6dmLiLi6-17" value="Rendelések megtekintése" style="ellipse;whiteSpace=wrap;html=1;" vertex="1" parent="1">
          <mxGeometry x="1090" y="930" width="120" height="80" as="geometry" />
        </mxCell>
        <mxCell id="zGulU9kN_2OV6dmLiLi6-18" value="" style="endArrow=none;dashed=1;html=1;rounded=0;startArrow=block;startFill=0;strokeWidth=1;" edge="1" parent="1" source="fIHqaEuYIzl1sbzKEDiN-62" target="zGulU9kN_2OV6dmLiLi6-17">
          <mxGeometry width="50" height="50" relative="1" as="geometry">
            <mxPoint x="950.19" y="642" as="sourcePoint" />
            <mxPoint x="1002.19" y="538" as="targetPoint" />
          </mxGeometry>
        </mxCell>
        <mxCell id="zGulU9kN_2OV6dmLiLi6-19" value="Termékek adatainak megtekintése" style="ellipse;whiteSpace=wrap;html=1;" vertex="1" parent="1">
          <mxGeometry x="950" y="-170" width="120" height="80" as="geometry" />
        </mxCell>
        <mxCell id="zGulU9kN_2OV6dmLiLi6-20" value="" style="endArrow=none;html=1;rounded=0;exitX=0.5;exitY=0.5;exitDx=0;exitDy=0;exitPerimeter=0;" edge="1" parent="1" source="zGulU9kN_2OV6dmLiLi6-11" target="zGulU9kN_2OV6dmLiLi6-19">
          <mxGeometry width="50" height="50" relative="1" as="geometry">
            <mxPoint x="985" y="-260" as="sourcePoint" />
            <mxPoint x="964" y="-70" as="targetPoint" />
          </mxGeometry>
        </mxCell>
        <mxCell id="zGulU9kN_2OV6dmLiLi6-21" value="" style="endArrow=open;dashed=1;html=1;rounded=0;startArrow=none;startFill=0;endFill=0;" edge="1" parent="1" source="zGulU9kN_2OV6dmLiLi6-19" target="fIHqaEuYIzl1sbzKEDiN-28">
          <mxGeometry width="50" height="50" relative="1" as="geometry">
            <mxPoint x="942" y="8" as="sourcePoint" />
            <mxPoint x="838" y="232" as="targetPoint" />
          </mxGeometry>
        </mxCell>
        <mxCell id="zGulU9kN_2OV6dmLiLi6-22" value="&amp;lt;&amp;lt;include&amp;gt;&amp;gt;" style="edgeLabel;html=1;align=center;verticalAlign=middle;resizable=0;points=[];" vertex="1" connectable="0" parent="zGulU9kN_2OV6dmLiLi6-21">
          <mxGeometry x="0.0731" y="2" relative="1" as="geometry">
            <mxPoint as="offset" />
          </mxGeometry>
        </mxCell>
        <mxCell id="zGulU9kN_2OV6dmLiLi6-23" value="Étterem adatainak módosítása" style="ellipse;whiteSpace=wrap;html=1;" vertex="1" parent="1">
          <mxGeometry x="1090" y="830" width="120" height="80" as="geometry" />
        </mxCell>
        <mxCell id="zGulU9kN_2OV6dmLiLi6-24" value="" style="endArrow=none;dashed=1;html=1;rounded=0;startArrow=block;startFill=0;strokeWidth=1;" edge="1" parent="1" source="fIHqaEuYIzl1sbzKEDiN-62" target="zGulU9kN_2OV6dmLiLi6-23">
          <mxGeometry width="50" height="50" relative="1" as="geometry">
            <mxPoint x="989.19" y="690" as="sourcePoint" />
            <mxPoint x="1113.19" y="710" as="targetPoint" />
          </mxGeometry>
        </mxCell>
        <mxCell id="zGulU9kN_2OV6dmLiLi6-26" value="Termékek listázása" style="ellipse;whiteSpace=wrap;html=1;" vertex="1" parent="1">
          <mxGeometry x="510" y="140" width="120" height="80" as="geometry" />
        </mxCell>
        <mxCell id="zGulU9kN_2OV6dmLiLi6-27" value="" style="endArrow=none;html=1;rounded=0;exitX=0.5;exitY=0.5;exitDx=0;exitDy=0;exitPerimeter=0;" edge="1" parent="1" source="fIHqaEuYIzl1sbzKEDiN-1" target="zGulU9kN_2OV6dmLiLi6-26">
          <mxGeometry width="50" height="50" relative="1" as="geometry">
            <mxPoint x="165" y="90" as="sourcePoint" />
            <mxPoint x="373" y="137" as="targetPoint" />
          </mxGeometry>
        </mxCell>
        <mxCell id="zGulU9kN_2OV6dmLiLi6-28" value="" style="endArrow=open;dashed=1;html=1;rounded=0;startArrow=none;startFill=0;endFill=0;" edge="1" parent="1" source="zGulU9kN_2OV6dmLiLi6-26" target="fIHqaEuYIzl1sbzKEDiN-28">
          <mxGeometry width="50" height="50" relative="1" as="geometry">
            <mxPoint x="860" y="-80" as="sourcePoint" />
            <mxPoint x="825" y="230" as="targetPoint" />
          </mxGeometry>
        </mxCell>
        <mxCell id="zGulU9kN_2OV6dmLiLi6-29" value="&amp;lt;&amp;lt;include&amp;gt;&amp;gt;" style="edgeLabel;html=1;align=center;verticalAlign=middle;resizable=0;points=[];" vertex="1" connectable="0" parent="zGulU9kN_2OV6dmLiLi6-28">
          <mxGeometry x="0.0731" y="2" relative="1" as="geometry">
            <mxPoint as="offset" />
          </mxGeometry>
        </mxCell>
        <mxCell id="zGulU9kN_2OV6dmLiLi6-30" value="Kijelentkezés" style="ellipse;whiteSpace=wrap;html=1;" vertex="1" parent="1">
          <mxGeometry x="1090" y="-170" width="120" height="80" as="geometry" />
        </mxCell>
        <mxCell id="zGulU9kN_2OV6dmLiLi6-31" value="" style="endArrow=none;html=1;rounded=0;exitX=0.5;exitY=0.5;exitDx=0;exitDy=0;exitPerimeter=0;" edge="1" parent="1" source="zGulU9kN_2OV6dmLiLi6-11" target="zGulU9kN_2OV6dmLiLi6-30">
          <mxGeometry width="50" height="50" relative="1" as="geometry">
            <mxPoint x="985" y="-260" as="sourcePoint" />
            <mxPoint x="1035" y="-129" as="targetPoint" />
          </mxGeometry>
        </mxCell>
        <mxCell id="zGulU9kN_2OV6dmLiLi6-32" value="" style="endArrow=open;dashed=1;html=1;rounded=0;startArrow=none;startFill=0;endFill=0;" edge="1" parent="1" source="zGulU9kN_2OV6dmLiLi6-30" target="fIHqaEuYIzl1sbzKEDiN-28">
          <mxGeometry width="50" height="50" relative="1" as="geometry">
            <mxPoint x="1027" y="-53" as="sourcePoint" />
            <mxPoint x="843" y="233" as="targetPoint" />
          </mxGeometry>
        </mxCell>
        <mxCell id="zGulU9kN_2OV6dmLiLi6-33" value="&amp;lt;&amp;lt;include&amp;gt;&amp;gt;" style="edgeLabel;html=1;align=center;verticalAlign=middle;resizable=0;points=[];" vertex="1" connectable="0" parent="zGulU9kN_2OV6dmLiLi6-32">
          <mxGeometry x="0.0731" y="2" relative="1" as="geometry">
            <mxPoint as="offset" />
          </mxGeometry>
        </mxCell>
        <mxCell id="zGulU9kN_2OV6dmLiLi6-35" value="" style="endArrow=open;dashed=1;html=1;rounded=0;startArrow=none;startFill=0;endFill=0;" edge="1" parent="1" source="It3g92XxdYLrqr_UEGC3-6" target="fIHqaEuYIzl1sbzKEDiN-28">
          <mxGeometry width="50" height="50" relative="1" as="geometry">
            <mxPoint x="1264" y="164" as="sourcePoint" />
            <mxPoint x="876" y="256" as="targetPoint" />
          </mxGeometry>
        </mxCell>
        <mxCell id="zGulU9kN_2OV6dmLiLi6-36" value="&amp;lt;&amp;lt;include&amp;gt;&amp;gt;" style="edgeLabel;html=1;align=center;verticalAlign=middle;resizable=0;points=[];" vertex="1" connectable="0" parent="zGulU9kN_2OV6dmLiLi6-35">
          <mxGeometry x="0.0731" y="2" relative="1" as="geometry">
            <mxPoint as="offset" />
          </mxGeometry>
        </mxCell>
        <mxCell id="zGulU9kN_2OV6dmLiLi6-37" value="" style="endArrow=none;html=1;rounded=0;exitX=0.5;exitY=0.5;exitDx=0;exitDy=0;exitPerimeter=0;" edge="1" parent="1" source="zGulU9kN_2OV6dmLiLi6-11" target="fIHqaEuYIzl1sbzKEDiN-45">
          <mxGeometry width="50" height="50" relative="1" as="geometry">
            <mxPoint x="985" y="-260" as="sourcePoint" />
            <mxPoint x="1122" y="-151" as="targetPoint" />
          </mxGeometry>
        </mxCell>
        <mxCell id="zGulU9kN_2OV6dmLiLi6-38" value="" style="endArrow=none;html=1;rounded=0;exitX=0.5;exitY=0.5;exitDx=0;exitDy=0;exitPerimeter=0;" edge="1" parent="1" source="zGulU9kN_2OV6dmLiLi6-11" target="fIHqaEuYIzl1sbzKEDiN-43">
          <mxGeometry width="50" height="50" relative="1" as="geometry">
            <mxPoint x="1030" y="-280" as="sourcePoint" />
            <mxPoint x="1245" y="-142" as="targetPoint" />
          </mxGeometry>
        </mxCell>
        <mxCell id="zGulU9kN_2OV6dmLiLi6-44" value="Éttermek listázása" style="ellipse;whiteSpace=wrap;html=1;" vertex="1" parent="1">
          <mxGeometry x="510" y="50" width="120" height="80" as="geometry" />
        </mxCell>
        <mxCell id="zGulU9kN_2OV6dmLiLi6-45" value="" style="endArrow=none;html=1;rounded=0;exitX=0.5;exitY=0.5;exitDx=0;exitDy=0;exitPerimeter=0;" edge="1" parent="1" source="fIHqaEuYIzl1sbzKEDiN-1" target="zGulU9kN_2OV6dmLiLi6-44">
          <mxGeometry width="50" height="50" relative="1" as="geometry">
            <mxPoint x="250" y="30" as="sourcePoint" />
            <mxPoint x="522" y="150" as="targetPoint" />
          </mxGeometry>
        </mxCell>
        <mxCell id="zGulU9kN_2OV6dmLiLi6-46" value="" style="endArrow=none;html=1;rounded=0;entryX=0.5;entryY=0.5;entryDx=0;entryDy=0;entryPerimeter=0;" edge="1" parent="1" source="zGulU9kN_2OV6dmLiLi6-44" target="zGulU9kN_2OV6dmLiLi6-11">
          <mxGeometry width="50" height="50" relative="1" as="geometry">
            <mxPoint x="165" y="90" as="sourcePoint" />
            <mxPoint x="520" y="73" as="targetPoint" />
          </mxGeometry>
        </mxCell>
        <mxCell id="zGulU9kN_2OV6dmLiLi6-47" value="" style="endArrow=open;dashed=1;html=1;rounded=0;startArrow=none;startFill=0;endFill=0;" edge="1" parent="1" source="zGulU9kN_2OV6dmLiLi6-44" target="fIHqaEuYIzl1sbzKEDiN-28">
          <mxGeometry width="50" height="50" relative="1" as="geometry">
            <mxPoint x="630" y="183" as="sourcePoint" />
            <mxPoint x="771" y="247" as="targetPoint" />
          </mxGeometry>
        </mxCell>
        <mxCell id="zGulU9kN_2OV6dmLiLi6-48" value="&amp;lt;&amp;lt;include&amp;gt;&amp;gt;" style="edgeLabel;html=1;align=center;verticalAlign=middle;resizable=0;points=[];" vertex="1" connectable="0" parent="zGulU9kN_2OV6dmLiLi6-47">
          <mxGeometry x="0.0731" y="2" relative="1" as="geometry">
            <mxPoint as="offset" />
          </mxGeometry>
        </mxCell>
        <mxCell id="zGulU9kN_2OV6dmLiLi6-49" value="Létrehozás" style="ellipse;whiteSpace=wrap;html=1;" vertex="1" parent="1">
          <mxGeometry x="1510" y="-250" width="120" height="80" as="geometry" />
        </mxCell>
        <mxCell id="zGulU9kN_2OV6dmLiLi6-50" value="Törlés" style="ellipse;whiteSpace=wrap;html=1;" vertex="1" parent="1">
          <mxGeometry x="1520" y="-150" width="120" height="80" as="geometry" />
        </mxCell>
        <mxCell id="zGulU9kN_2OV6dmLiLi6-51" value="" style="endArrow=none;dashed=1;html=1;rounded=0;startArrow=block;startFill=0;strokeWidth=1;" edge="1" parent="1" source="fIHqaEuYIzl1sbzKEDiN-43" target="zGulU9kN_2OV6dmLiLi6-49">
          <mxGeometry width="50" height="50" relative="1" as="geometry">
            <mxPoint x="1368" y="126" as="sourcePoint" />
            <mxPoint x="1492" y="64" as="targetPoint" />
          </mxGeometry>
        </mxCell>
        <mxCell id="zGulU9kN_2OV6dmLiLi6-52" value="" style="endArrow=none;dashed=1;html=1;rounded=0;startArrow=block;startFill=0;strokeWidth=1;" edge="1" parent="1" source="fIHqaEuYIzl1sbzKEDiN-43" target="zGulU9kN_2OV6dmLiLi6-50">
          <mxGeometry width="50" height="50" relative="1" as="geometry">
            <mxPoint x="1486" y="-146" as="sourcePoint" />
            <mxPoint x="1534" y="-174" as="targetPoint" />
          </mxGeometry>
        </mxCell>
        <mxCell id="zGulU9kN_2OV6dmLiLi6-53" value="Felhasználó felfüggesztése" style="ellipse;whiteSpace=wrap;html=1;" vertex="1" parent="1">
          <mxGeometry x="1260" y="-10" width="120" height="80" as="geometry" />
        </mxCell>
        <mxCell id="zGulU9kN_2OV6dmLiLi6-54" value="" style="endArrow=none;dashed=1;html=1;rounded=0;startArrow=block;startFill=0;strokeWidth=1;" edge="1" parent="1" source="fIHqaEuYIzl1sbzKEDiN-74" target="zGulU9kN_2OV6dmLiLi6-53">
          <mxGeometry width="50" height="50" relative="1" as="geometry">
            <mxPoint x="1362" y="121" as="sourcePoint" />
            <mxPoint x="1438" y="69" as="targetPoint" />
          </mxGeometry>
        </mxCell>
      </root>
    </mxGraphModel>
  </diagram>
</mxfile>
